<?xml version="1.0" standalone="no"?>
<!DOCTYPE svg PUBLIC "-//W3C//DTD SVG 20010904//EN"
 "http://www.w3.org/TR/2001/REC-SVG-20010904/DTD/svg10.dtd">
<svg version="1.0" xmlns="http://www.w3.org/2000/svg"
 width="3840.000000pt" height="2160.000000pt" viewBox="0 0 3840.000000 2160.000000"
 preserveAspectRatio="xMidYMid meet">

<g transform="translate(0.000000,2160.000000) scale(0.100000,-0.100000)"
fill="#000000" stroke="none">
<path d="M22910 20199 c-149 -23 -193 -29 -221 -29 -31 0 -280 -59 -332 -79
-16 -6 -39 -11 -53 -11 -13 0 -72 -17 -132 -38 -59 -21 -132 -46 -162 -56 -30
-10 -82 -31 -116 -47 -34 -16 -66 -29 -73 -29 -6 0 -54 -20 -105 -45 -52 -25
-98 -45 -103 -45 -12 0 -246 -119 -253 -128 -3 -4 -25 -16 -50 -27 -24 -11
-74 -39 -109 -62 -36 -24 -69 -43 -73 -43 -7 0 -96 -58 -108 -70 -3 -3 -22
-14 -42 -25 -20 -10 -50 -32 -67 -47 -16 -15 -36 -28 -43 -28 -7 0 -23 -11
-36 -24 -12 -14 -42 -37 -65 -53 -43 -28 -102 -76 -182 -145 -23 -21 -46 -38
-50 -38 -4 0 -25 -20 -47 -44 -21 -25 -48 -48 -58 -51 -11 -4 -20 -12 -20 -19
0 -13 -41 -56 -54 -56 -9 0 -36 -26 -36 -35 0 -3 -38 -45 -85 -93 -47 -47 -85
-89 -85 -93 0 -4 -17 -25 -37 -46 -53 -56 -113 -130 -146 -179 -15 -23 -37
-52 -50 -65 -12 -13 -28 -35 -35 -49 -7 -14 -28 -42 -47 -64 -19 -21 -35 -42
-35 -47 0 -5 -18 -32 -40 -61 -22 -29 -40 -57 -40 -61 0 -4 -20 -37 -45 -74
-25 -36 -45 -69 -45 -74 0 -6 -20 -40 -45 -78 -25 -38 -45 -72 -45 -77 0 -8
-21 -51 -68 -139 -31 -59 -102 -214 -102 -222 0 -6 -20 -57 -45 -114 -25 -57
-45 -111 -45 -119 0 -8 -14 -51 -31 -95 -16 -44 -36 -107 -44 -140 -8 -33 -32
-134 -54 -225 -62 -260 -85 -494 -78 -811 3 -140 8 -264 12 -276 6 -19 17 -22
93 -29 234 -19 652 30 907 107 179 54 199 61 263 90 35 16 70 29 79 29 14 0
136 58 233 112 19 10 67 34 106 53 40 18 75 38 79 44 3 6 30 23 58 37 29 15
75 44 103 65 28 22 54 39 59 39 4 0 21 11 39 25 17 14 63 49 101 77 39 28 72
55 75 58 3 4 10 9 17 11 6 2 31 21 55 42 188 163 274 242 347 314 46 46 88 83
93 83 4 0 8 5 8 12 0 7 19 31 43 53 126 124 425 489 476 584 8 14 29 44 48 65
18 22 33 43 33 47 0 5 20 37 45 72 25 36 45 69 45 73 0 5 16 31 35 58 19 27
35 55 35 63 0 7 5 13 10 13 6 0 10 7 10 15 0 15 19 55 31 65 8 7 130 258 164
340 15 36 32 74 38 85 6 11 18 45 28 75 9 30 31 93 48 139 17 46 31 92 31 102
0 10 11 51 24 91 48 150 93 397 122 668 12 118 15 213 10 400 -2 135 -8 260
-12 278 -6 31 -8 32 -53 31 -25 -1 -71 -5 -101 -10z"/>
<path d="M22498 15685 c-3 -2 -72 -9 -258 -25 -108 -9 -192 -23 -365 -60 -55
-12 -125 -25 -155 -30 -30 -5 -86 -18 -125 -30 -102 -31 -134 -40 -190 -49
-27 -5 -102 -27 -165 -49 -63 -22 -130 -42 -148 -46 -19 -3 -48 -12 -65 -20
-18 -8 -68 -26 -112 -41 -44 -15 -127 -44 -185 -65 -58 -21 -130 -45 -160 -55
-30 -10 -59 -21 -65 -26 -16 -12 -119 -49 -137 -49 -10 0 -32 -6 -50 -14 -75
-33 -192 -76 -206 -76 -9 0 -64 -17 -122 -39 -58 -21 -123 -43 -145 -48 -22
-6 -80 -26 -130 -44 -49 -18 -108 -35 -130 -39 -22 -4 -80 -20 -130 -35 -224
-68 -329 -67 -585 10 -46 14 -92 25 -102 25 -21 0 -245 72 -411 131 -59 22
-116 39 -125 39 -10 0 -55 16 -100 35 -46 19 -109 42 -140 51 -31 9 -80 27
-108 40 -28 13 -82 33 -120 45 -38 12 -87 29 -109 39 -22 9 -65 25 -95 35
-100 32 -225 76 -258 91 -18 8 -47 14 -65 14 -18 0 -37 4 -42 9 -10 9 -188 66
-240 76 -16 4 -100 24 -185 45 -282 71 -721 128 -880 116 -36 -3 -110 -8 -165
-11 -135 -8 -267 -22 -408 -45 -65 -11 -132 -20 -147 -20 -16 0 -100 -18 -187
-40 -87 -22 -166 -40 -175 -40 -10 0 -80 -20 -155 -45 -76 -25 -145 -45 -153
-45 -8 0 -32 -9 -53 -20 -20 -11 -43 -20 -50 -20 -7 0 -28 -9 -48 -19 -20 -11
-55 -25 -79 -31 -46 -12 -106 -39 -277 -121 -56 -27 -105 -49 -110 -49 -4 0
-28 -14 -53 -30 -25 -17 -64 -40 -88 -51 -24 -11 -68 -36 -97 -55 -30 -19 -59
-34 -65 -34 -6 0 -16 -5 -23 -10 -45 -38 -108 -80 -120 -80 -8 0 -20 -7 -28
-16 -7 -9 -47 -38 -89 -65 -42 -27 -85 -58 -95 -69 -10 -11 -24 -20 -31 -20
-7 0 -34 -20 -61 -45 -26 -25 -52 -45 -57 -45 -5 0 -21 -11 -35 -24 -14 -14
-73 -65 -131 -113 -175 -148 -570 -551 -570 -582 0 -4 -18 -25 -40 -47 -22
-21 -40 -44 -40 -50 0 -7 -13 -25 -29 -40 -16 -16 -37 -43 -48 -60 -10 -17
-39 -60 -66 -95 -93 -126 -117 -160 -117 -170 0 -5 -18 -34 -40 -63 -22 -29
-40 -57 -40 -63 0 -5 -20 -38 -45 -74 -25 -35 -45 -70 -45 -77 0 -7 -5 -18
-10 -25 -27 -31 -80 -123 -80 -139 0 -9 -4 -19 -9 -23 -14 -8 -67 -109 -76
-142 -3 -15 -10 -30 -13 -33 -10 -7 -69 -130 -75 -155 -3 -11 -23 -60 -45
-110 -22 -49 -51 -117 -63 -150 -12 -33 -30 -79 -41 -102 -10 -23 -18 -52 -18
-65 0 -13 -4 -28 -8 -33 -13 -14 -67 -176 -91 -270 -11 -44 -34 -125 -50 -180
-17 -55 -31 -111 -31 -124 0 -13 -11 -69 -24 -125 -38 -158 -76 -396 -121
-756 -26 -207 -38 -595 -31 -1026 7 -412 17 -560 61 -904 14 -107 30 -233 35
-280 8 -83 20 -154 61 -350 10 -53 19 -108 19 -124 0 -16 20 -110 44 -210 24
-99 48 -208 54 -241 7 -33 21 -91 32 -130 11 -38 27 -99 36 -135 9 -36 31
-119 51 -185 19 -66 38 -139 43 -162 5 -24 28 -95 50 -160 22 -64 40 -123 40
-132 0 -9 18 -63 41 -121 23 -58 43 -116 46 -130 5 -27 60 -179 129 -360 24
-63 44 -119 44 -124 0 -5 13 -36 29 -70 49 -105 61 -136 61 -154 0 -10 6 -26
13 -37 7 -11 20 -36 27 -55 8 -19 20 -41 27 -48 7 -7 13 -23 13 -35 0 -13 20
-63 45 -112 24 -50 45 -94 45 -98 0 -9 105 -232 120 -257 6 -8 17 -32 27 -54
9 -21 47 -97 84 -170 37 -72 87 -169 110 -216 23 -47 45 -87 49 -90 4 -3 24
-38 44 -78 20 -41 48 -88 61 -106 14 -18 25 -38 25 -44 0 -7 20 -41 45 -78 25
-36 45 -69 45 -75 0 -5 19 -38 43 -73 72 -110 101 -155 127 -200 38 -66 139
-212 155 -226 8 -7 15 -18 15 -26 0 -7 13 -28 28 -46 16 -18 48 -62 72 -98 24
-36 49 -69 57 -73 7 -4 20 -22 28 -40 8 -18 31 -52 50 -77 19 -25 54 -71 77
-102 156 -210 389 -513 425 -553 15 -16 37 -45 50 -63 13 -19 37 -45 53 -59
17 -14 30 -30 30 -36 0 -7 26 -39 58 -73 31 -33 91 -98 132 -144 98 -110 294
-307 395 -395 43 -38 88 -80 99 -92 11 -13 24 -23 28 -23 5 0 30 -19 54 -43
25 -23 52 -44 59 -47 7 -3 31 -22 54 -43 22 -20 44 -37 49 -37 4 0 17 -8 28
-17 31 -29 92 -73 100 -73 3 0 28 -15 54 -34 41 -30 76 -50 210 -121 77 -41
207 -99 248 -110 26 -8 88 -28 137 -45 50 -18 117 -36 150 -40 33 -5 107 -16
165 -25 126 -20 378 -16 535 9 55 9 131 20 169 26 38 6 125 26 193 45 67 19
131 35 140 35 19 0 225 67 403 132 58 21 113 38 122 38 9 0 19 4 22 9 3 5 18
12 33 16 16 3 53 19 83 34 30 15 70 31 88 34 19 4 55 17 80 30 26 13 72 31
102 41 30 10 69 22 85 28 161 55 216 72 315 103 64 19 143 40 175 46 33 6 83
17 110 25 111 30 380 73 535 85 414 33 814 6 1142 -77 53 -13 105 -24 115 -24
26 0 311 -86 434 -131 58 -21 113 -39 122 -39 15 0 143 -54 189 -80 10 -6 24
-10 31 -10 7 0 51 -16 97 -36 47 -20 96 -40 110 -44 14 -5 77 -27 140 -48 175
-61 363 -116 515 -151 215 -50 291 -62 475 -76 171 -13 218 -13 385 0 129 10
219 22 280 39 50 13 135 36 190 50 55 15 102 31 103 37 2 5 11 9 20 9 10 0 38
11 64 25 26 14 54 25 62 25 13 0 52 19 141 67 11 6 40 21 65 33 25 13 59 34
76 47 17 13 38 23 46 23 9 0 21 7 28 15 7 9 50 40 96 71 45 30 87 61 94 69 7
8 18 15 24 15 6 0 32 20 58 45 26 25 51 45 55 45 4 0 28 20 52 45 24 25 48 45
52 45 11 0 362 352 419 419 70 83 111 130 163 186 26 29 47 56 47 61 1 5 19
27 40 49 22 22 40 42 40 46 0 7 37 53 73 90 9 11 17 22 17 27 0 4 20 29 45 57
25 27 45 54 45 60 0 6 14 24 31 41 17 16 38 43 46 59 9 17 19 32 23 35 12 8
133 169 151 200 8 15 32 47 52 70 20 24 37 50 37 57 0 7 4 13 8 13 4 0 15 12
24 28 9 15 25 36 35 47 10 11 24 32 32 46 7 15 28 44 47 65 18 22 34 47 34 57
0 9 4 17 8 17 8 0 111 149 152 219 9 14 35 54 58 89 23 35 42 69 42 75 0 7 11
24 24 38 13 14 39 55 57 90 18 35 46 82 61 103 15 21 28 45 28 53 0 8 9 27 21
41 36 48 69 103 69 116 0 7 8 24 18 37 10 13 35 56 54 94 139 276 198 393 229
461 20 44 58 123 83 176 25 54 46 103 46 110 0 6 17 46 37 87 40 83 49 104 58
141 6 23 27 73 61 143 8 16 14 36 14 45 0 9 6 28 13 42 7 14 24 54 37 90 13
36 26 70 30 75 4 6 10 26 14 46 3 19 15 53 26 74 11 22 20 44 20 51 0 6 7 24
15 41 8 16 18 43 21 60 6 29 4 31 -61 62 -37 17 -75 31 -86 31 -10 0 -20 4
-24 9 -9 15 -137 81 -157 81 -10 0 -18 4 -18 8 0 4 -19 18 -42 31 -137 72
-250 140 -310 185 -25 20 -53 36 -62 36 -9 0 -16 4 -16 8 0 8 -95 82 -105 82
-6 0 -54 40 -74 63 -8 9 -20 17 -27 17 -6 0 -32 20 -58 45 -27 25 -52 45 -56
45 -4 0 -25 17 -47 38 -21 20 -79 74 -128 119 -126 115 -375 369 -375 382 0 4
-20 27 -45 51 -25 24 -45 48 -45 53 0 4 -16 25 -36 45 -19 20 -40 49 -46 65
-5 15 -14 27 -19 27 -5 0 -35 39 -67 88 -33 48 -67 94 -76 101 -9 7 -16 21
-16 31 0 9 -10 29 -23 43 -12 15 -31 43 -42 64 -10 21 -33 61 -50 88 -17 28
-47 82 -65 120 -19 39 -37 72 -41 75 -3 3 -18 34 -32 71 -14 36 -40 93 -57
126 -16 34 -30 69 -30 77 0 9 -9 31 -20 51 -11 20 -20 41 -20 48 0 7 -7 26
-16 42 -9 17 -24 62 -34 100 -10 39 -33 115 -50 170 -17 55 -37 134 -45 175
-7 41 -25 128 -39 194 -14 65 -30 178 -36 250 -6 72 -15 172 -20 221 -23 229
-21 581 5 790 2 17 6 66 10 110 8 100 30 235 56 345 11 47 24 112 29 145 5 33
23 101 40 150 17 50 38 117 46 150 9 33 25 80 35 105 11 25 25 56 31 70 6 14
14 33 19 42 5 10 9 23 9 30 0 12 94 222 111 248 5 8 25 47 44 85 18 39 45 87
60 109 14 21 35 57 46 80 10 22 33 56 49 75 17 18 30 39 30 45 0 6 13 27 28
46 16 19 45 60 65 90 20 30 50 70 67 88 16 18 30 36 30 40 0 4 17 26 38 50 20
23 53 61 73 85 109 126 213 233 344 352 48 44 110 101 139 127 28 27 55 48 59
48 4 0 27 18 49 40 23 22 45 40 49 40 5 0 20 11 35 25 15 14 51 41 80 60 30
20 68 49 86 65 18 17 40 30 50 30 10 0 18 4 18 8 0 11 87 73 125 90 17 7 42
24 56 38 14 14 39 28 55 33 36 9 45 50 16 79 -11 11 -39 46 -62 78 -24 33 -57
76 -74 96 -17 20 -47 56 -66 79 -33 40 -66 78 -170 192 -25 27 -76 79 -115
116 -38 36 -86 82 -106 101 -90 86 -142 130 -154 130 -7 0 -15 7 -19 15 -3 8
-51 48 -108 90 -129 95 -116 85 -163 123 -22 17 -47 32 -56 32 -10 0 -19 4
-21 8 -4 11 -105 82 -116 82 -4 0 -24 12 -43 26 -19 14 -63 40 -99 58 -36 18
-83 45 -104 60 -21 14 -45 26 -52 26 -12 0 -75 32 -99 50 -5 4 -41 20 -80 35
-38 15 -92 37 -120 50 -27 13 -75 32 -105 43 -30 12 -91 34 -135 50 -128 48
-332 113 -383 122 -26 5 -110 25 -187 44 -249 62 -585 117 -855 140 -139 12
-552 20 -562 11z"/>
</g>
</svg>
