<?xml version="1.0" standalone="no"?>
<!DOCTYPE svg PUBLIC "-//W3C//DTD SVG 20010904//EN"
 "http://www.w3.org/TR/2001/REC-SVG-20010904/DTD/svg10.dtd">
<svg version="1.0" xmlns="http://www.w3.org/2000/svg"
 width="348.000000pt" height="348.000000pt" viewBox="0 0 348.000000 348.000000"
 preserveAspectRatio="xMidYMid meet">

<g transform="translate(0.000000,348.000000) scale(0.100000,-0.100000)"
fill="#000000" stroke="none">
<path d="M569 2911 l-39 -39 0 -1132 0 -1132 39 -39 39 -39 616 0 616 0 0 470
0 470 -170 0 -170 0 0 170 0 170 169 0 169 0 4 223 c4 196 7 229 26 281 61
166 176 267 338 297 58 11 313 6 362 -7 22 -6 22 -7 20 -183 l-3 -176 -145 -1
c-244 -2 -259 -18 -260 -276 l0 -158 196 0 196 0 -5 -27 c-3 -16 -16 -92 -28
-170 l-23 -143 -168 0 -168 0 0 -470 0 -470 346 0 346 0 39 39 39 39 0 1132 0
1132 -39 39 -39 39 -1132 0 -1132 0 -39 -39z"/>
</g>
</svg>
