<?xml version="1.0" standalone="no"?>
<!DOCTYPE svg PUBLIC "-//W3C//DTD SVG 20010904//EN"
 "http://www.w3.org/TR/2001/REC-SVG-20010904/DTD/svg10.dtd">
<svg version="1.0" xmlns="http://www.w3.org/2000/svg"
 width="225.000000pt" height="225.000000pt" viewBox="0 0 225.000000 225.000000"
 preserveAspectRatio="xMidYMid meet">

<g transform="translate(0.000000,225.000000) scale(0.100000,-0.100000)"
fill="#000000" stroke="none">
<path d="M1025 2239 c-271 -21 -532 -148 -721 -352 -71 -78 -166 -214 -162
-234 2 -7 82 -71 178 -142 l175 -129 39 72 c58 106 177 220 286 273 107 53
190 73 305 73 148 0 267 -38 390 -124 l63 -44 156 157 156 157 -42 35 c-234
195 -511 281 -823 258z"/>
<path d="M1130 1126 l0 -226 316 0 315 0 -6 -22 c-18 -58 -85 -159 -149 -224
l-71 -72 158 -133 c87 -74 165 -138 172 -144 11 -7 28 4 70 45 144 142 261
376 295 592 13 81 10 381 -4 395 -4 4 -253 9 -552 11 l-544 4 0 -226z"/>
</g>
</svg>
