<?xml version="1.0" standalone="no"?>
<!DOCTYPE svg PUBLIC "-//W3C//DTD SVG 20010904//EN"
 "http://www.w3.org/TR/2001/REC-SVG-20010904/DTD/svg10.dtd">
<svg version="1.0" xmlns="http://www.w3.org/2000/svg"
 width="123.000000pt" height="92.000000pt" viewBox="0 0 123.000000 92.000000"
 preserveAspectRatio="xMidYMid meet">

<g transform="translate(0.000000,92.000000) scale(0.100000,-0.100000)"
fill="#000000" stroke="none">
<path d="M420 906 c-25 -7 -60 -21 -79 -31 -44 -22 -124 -104 -140 -142 -6
-15 -25 -34 -42 -42 -82 -36 -134 -123 -133 -226 0 -68 25 -142 53 -160 6 -3
65 30 133 73 68 44 228 145 356 226 127 81 232 152 232 158 0 21 -93 100 -146
125 -65 29 -169 38 -234 19z"/>
<path d="M100 105 c0 -30 5 -55 10 -55 6 0 10 25 10 55 0 30 -4 55 -10 55 -5
0 -10 -25 -10 -55z"/>
<path d="M370 140 c0 -11 -5 -17 -12 -15 -23 8 -40 -11 -36 -41 2 -25 8 -29
36 -32 l32 -3 0 55 c0 31 -4 56 -10 56 -5 0 -10 -9 -10 -20z m0 -55 c0 -25
-23 -35 -35 -15 -10 16 2 40 20 40 9 0 15 -9 15 -25z"/>
<path d="M950 105 c0 -30 5 -55 10 -55 6 0 10 25 10 55 0 30 -4 55 -10 55 -5
0 -10 -25 -10 -55z"/>
<path d="M10 131 c-22 -43 1 -82 48 -80 27 1 27 1 3 8 -13 3 -29 14 -35 24
-14 22 2 49 35 58 21 6 21 7 -8 8 -22 1 -35 -5 -43 -18z"/>
<path d="M440 131 c-22 -43 1 -82 48 -80 27 1 27 1 3 8 -13 3 -29 14 -35 24
-14 22 2 49 35 58 21 6 21 7 -8 8 -22 1 -35 -5 -43 -18z"/>
<path d="M150 116 c-6 -8 -10 -25 -8 -38 2 -18 9 -23 33 -23 24 0 31 5 33 24
3 15 -3 30 -14 38 -23 17 -29 16 -44 -1z m40 -31 c0 -28 -24 -34 -34 -9 -8 20
1 34 20 34 8 0 14 -10 14 -25z"/>
<path d="M542 121 c-8 -5 -12 -21 -10 -37 3 -25 7 -29 33 -29 24 0 31 5 33 24
3 15 -3 30 -14 38 -21 15 -24 16 -42 4z m38 -36 c0 -25 -23 -35 -35 -15 -10
16 2 40 20 40 9 0 15 -9 15 -25z"/>
<path d="M728 123 c-13 -3 -18 -14 -18 -39 0 -19 5 -34 10 -34 6 0 10 14 10
30 0 42 27 40 33 -2 4 -28 4 -26 3 6 -1 40 -8 47 -38 39z"/>
<path d="M800 116 c-9 -12 -7 -17 9 -28 27 -17 27 -26 -1 -31 -20 -4 -20 -4 4
-6 37 -2 46 18 17 40 -21 17 -20 24 4 20 5 -1 6 3 2 9 -9 14 -20 13 -35 -4z"/>
<path d="M876 114 c-19 -18 -19 -20 -6 -45 7 -12 20 -19 38 -18 21 1 22 2 7 6
-34 8 -41 23 -12 23 29 0 35 18 15 38 -16 16 -23 15 -42 -4z m34 -14 c0 -5 -4
-10 -9 -10 -6 0 -13 5 -16 10 -3 6 1 10 9 10 9 0 16 -4 16 -10z"/>
<path d="M1000 119 c-13 -8 -12 -9 4 -7 10 2 21 -3 23 -9 3 -8 -4 -13 -16 -13
-14 0 -21 -6 -21 -20 0 -16 7 -20 30 -20 27 0 30 3 30 34 0 22 -6 36 -16 40
-19 7 -16 8 -34 -5z m30 -49 c0 -5 -4 -10 -10 -10 -5 0 -10 5 -10 10 0 6 5 10
10 10 6 0 10 -4 10 -10z"/>
<path d="M1081 116 c-19 -23 -10 -60 17 -64 12 -2 22 -8 22 -13 0 -5 -10 -14
-22 -19 -22 -8 -22 -9 -2 -9 11 -1 25 4 32 11 14 14 16 98 3 98 -5 0 -16 2
-24 5 -7 3 -19 -1 -26 -9z m39 -31 c0 -16 -6 -25 -15 -25 -9 0 -15 9 -15 25 0
16 6 25 15 25 9 0 15 -9 15 -25z"/>
<path d="M1176 117 c-11 -8 -17 -23 -14 -38 2 -19 9 -24 33 -26 20 -1 23 0 8
4 -28 5 -30 23 -4 23 27 0 34 15 15 34 -19 19 -16 19 -38 3z m34 -11 c0 -11
-19 -15 -25 -6 -3 5 1 10 9 10 9 0 16 -2 16 -4z"/>
<path d="M232 88 c2 -26 8 -34 27 -36 13 -2 28 2 32 10 12 18 11 58 -1 58 -5
0 -10 -13 -10 -30 0 -20 -5 -30 -15 -30 -10 0 -15 10 -15 30 0 17 -5 30 -11
30 -6 0 -9 -14 -7 -32z"/>
<path d="M622 88 c3 -29 6 -33 33 -33 27 0 30 4 33 33 2 18 -1 32 -7 32 -6 0
-11 -13 -11 -30 0 -20 -5 -30 -15 -30 -10 0 -15 10 -15 30 0 17 -5 30 -11 30
-6 0 -9 -14 -7 -32z"/>
</g>
</svg>
